<?xml version="1.0" encoding="UTF-8" standalone="no"?>
<!-- Generator: Adobe Illustrator 16.0.0, SVG Export Plug-In . SVG Version: 6.00 Build 0)  -->

<svg
   xmlns:dc="http://purl.org/dc/elements/1.1/"
   xmlns:cc="http://creativecommons.org/ns#"
   xmlns:rdf="http://www.w3.org/1999/02/22-rdf-syntax-ns#"
   xmlns:svg="http://www.w3.org/2000/svg"
   xmlns="http://www.w3.org/2000/svg"
   xmlns:sodipodi="http://sodipodi.sourceforge.net/DTD/sodipodi-0.dtd"
   xmlns:inkscape="http://www.inkscape.org/namespaces/inkscape"
   version="1.1"
   id="Capa_1"
   x="0px"
   y="0px"
   width="16"
   height="16"
   viewBox="0 0 16 16"
   xml:space="preserve"
   inkscape:version="0.91 r13725"
   sodipodi:docname="cpu-symbolic.svg"><metadata
     id="metadata3569"><rdf:RDF><cc:Work
         rdf:about=""><dc:format>image/svg+xml</dc:format><dc:type
           rdf:resource="http://purl.org/dc/dcmitype/StillImage" /><dc:title></dc:title></cc:Work></rdf:RDF></metadata><defs
     id="defs3567" /><sodipodi:namedview
     pagecolor="#ffffff"
     bordercolor="#666666"
     borderopacity="1"
     objecttolerance="10"
     gridtolerance="10"
     guidetolerance="10"
     inkscape:pageopacity="0"
     inkscape:pageshadow="2"
     inkscape:window-width="1400"
     inkscape:window-height="984"
     id="namedview3565"
     showgrid="false"
     inkscape:zoom="46.874994"
     inkscape:cx="8"
     inkscape:cy="8"
     inkscape:window-x="0"
     inkscape:window-y="27"
     inkscape:window-maximized="1"
     inkscape:current-layer="Capa_1" /><g
     id="g3505"
     transform="matrix(0.01698514,0,0,0.01698514,-9.4e-7,-9.4e-7)"
     style="fill:#cccccc"><g
       id="g3507"
       style="fill:#cccccc"><path
         d="m 579.1,894 c 0,26.5 21.5,48 48,48 26.5,0 48,-21.5 48,-48 l 0,-77.5 -95.9,0 0,77.5 -0.1,0 z"
         id="path3509"
         inkscape:connector-curvature="0"
         style="fill:#cccccc" /><path
         d="m 579.1,48 0,77.5 95.9,0 0,-77.5 C 675,21.5 653.5,0 627,0 600.5,0 579.1,21.5 579.1,48 Z"
         id="path3511"
         inkscape:connector-curvature="0"
         style="fill:#cccccc" /><path
         d="m 423,48 0,77.5 96,0 0,-77.5 C 519,21.5 497.5,0 471,0 444.5,0 423,21.5 423,48 Z"
         id="path3513"
         inkscape:connector-curvature="0"
         style="fill:#cccccc" /><path
         d="m 423,894 c 0,26.5 21.5,48 48,48 26.5,0 48,-21.5 48,-48 l 0,-77.5 -96,0 0,77.5 z"
         id="path3515"
         inkscape:connector-curvature="0"
         style="fill:#cccccc" /><path
         d="m 267,48 0,77.5 95.9,0 0,-77.5 C 362.9,21.5 341.4,0 314.9,0 288.4,0 267,21.5 267,48 Z"
         id="path3517"
         inkscape:connector-curvature="0"
         style="fill:#cccccc" /><path
         d="m 267,894 c 0,26.5 21.5,48 48,48 26.5,0 48,-21.5 48,-48 l 0,-77.5 -96,0 0,77.5 z"
         id="path3519"
         inkscape:connector-curvature="0"
         style="fill:#cccccc" /><path
         d="m 0,627 c 0,26.5 21.5,48 48,48 l 77.5,0 0,-95.9 -77.5,0 C 21.5,579.1 0,600.5 0,627 Z"
         id="path3521"
         inkscape:connector-curvature="0"
         style="fill:#cccccc" /><path
         d="m 894,579.1 -77.5,0 0,95.9 77.5,0 c 26.5,0 48,-21.5 48,-48 0,-26.5 -21.5,-47.9 -48,-47.9 z"
         id="path3523"
         inkscape:connector-curvature="0"
         style="fill:#cccccc" /><path
         d="m 0,471 c 0,26.5 21.5,48 48,48 l 77.5,0 0,-96 -77.5,0 C 21.5,423 0,444.5 0,471 Z"
         id="path3525"
         inkscape:connector-curvature="0"
         style="fill:#cccccc" /><path
         d="m 894,423 -77.5,0 0,96 77.5,0 c 26.5,0 48,-21.5 48,-48 0,-26.5 -21.5,-48 -48,-48 z"
         id="path3527"
         inkscape:connector-curvature="0"
         style="fill:#cccccc" /><path
         d="m 0,315 c 0,26.5 21.5,48 48,48 l 77.5,0 0,-96 -77.5,0 C 21.5,267 0,288.5 0,315 Z"
         id="path3529"
         inkscape:connector-curvature="0"
         style="fill:#cccccc" /><path
         d="m 894,267 -77.5,0 0,95.9 77.5,0 c 26.5,0 48,-21.5 48,-48 0,-26.5 -21.5,-47.9 -48,-47.9 z"
         id="path3531"
         inkscape:connector-curvature="0"
         style="fill:#cccccc" /><path
         d="m 171.6,720.4 c 0,27.6 22.4,50 50,50 l 498.8,0 c 27.6,0 50,-22.4 50,-50 l 0,-498.8 c 0,-27.6 -22.4,-50 -50,-50 l -498.8,0 c -27.6,0 -50,22.4 -50,50 l 0,498.8 z"
         id="path3533"
         inkscape:connector-curvature="0"
         style="fill:#cccccc" /></g></g><g
     id="g3535"
     transform="translate(0,-926)" /><g
     id="g3537"
     transform="translate(0,-926)" /><g
     id="g3539"
     transform="translate(0,-926)" /><g
     id="g3541"
     transform="translate(0,-926)" /><g
     id="g3543"
     transform="translate(0,-926)" /><g
     id="g3545"
     transform="translate(0,-926)" /><g
     id="g3547"
     transform="translate(0,-926)" /><g
     id="g3549"
     transform="translate(0,-926)" /><g
     id="g3551"
     transform="translate(0,-926)" /><g
     id="g3553"
     transform="translate(0,-926)" /><g
     id="g3555"
     transform="translate(0,-926)" /><g
     id="g3557"
     transform="translate(0,-926)" /><g
     id="g3559"
     transform="translate(0,-926)" /><g
     id="g3561"
     transform="translate(0,-926)" /><g
     id="g3563"
     transform="translate(0,-926)" /></svg>