<?xml version="1.0" encoding="UTF-8" standalone="no"?>
<!-- Created with Inkscape (http://www.inkscape.org/) -->

<svg
   xmlns:dc="http://purl.org/dc/elements/1.1/"
   xmlns:cc="http://creativecommons.org/ns#"
   xmlns:rdf="http://www.w3.org/1999/02/22-rdf-syntax-ns#"
   xmlns:svg="http://www.w3.org/2000/svg"
   xmlns="http://www.w3.org/2000/svg"
   xmlns:sodipodi="http://sodipodi.sourceforge.net/DTD/sodipodi-0.dtd"
   xmlns:inkscape="http://www.inkscape.org/namespaces/inkscape"
   width="16"
   height="16"
   viewBox="0 0 16 16"
   id="svg2"
   version="1.1"
   inkscape:version="0.91 r13725"
   sodipodi:docname="icon_fan.svg">
  <defs
     id="defs4" />
  <sodipodi:namedview
     id="base"
     pagecolor="#ffffff"
     bordercolor="#666666"
     borderopacity="1.0"
     inkscape:pageopacity="0.0"
     inkscape:pageshadow="2"
     inkscape:zoom="46.8725"
     inkscape:cx="7.9999999"
     inkscape:cy="8.0000263"
     inkscape:document-units="px"
     inkscape:current-layer="layer1"
     showgrid="false"
     inkscape:window-width="1400"
     inkscape:window-height="984"
     inkscape:window-x="0"
     inkscape:window-y="27"
     inkscape:window-maximized="1"
     units="px" />
  <metadata
     id="metadata7">
    <rdf:RDF>
      <cc:Work
         rdf:about="">
        <dc:format>image/svg+xml</dc:format>
        <dc:type
           rdf:resource="http://purl.org/dc/dcmitype/StillImage" />
        <dc:title></dc:title>
      </cc:Work>
    </rdf:RDF>
  </metadata>
  <g
     inkscape:label="Layer 1"
     inkscape:groupmode="layer"
     id="layer1"
     transform="translate(0,-1036.3621)">
    <path
       style="fill:#cccccc"
       d="m 7.9349598,1052.2741 c -0.3018794,-0.1841 -0.7109572,-1.4949 -0.796745,-2.5531 -0.034896,-0.4305 -0.0065,-1.1398 0.059794,-1.4934 l 0.026258,-0.14 -0.2214271,-0.051 c -0.1217846,-0.028 -0.4088591,-0.1438 -0.6379433,-0.257 -0.2557341,-0.1264 -0.4335416,-0.1917 -0.4606208,-0.1692 -0.077074,0.064 -0.4655709,0.8806 -0.5938421,1.2483 -0.1952344,0.5597 -0.2707267,0.9998 -0.2751512,1.6043 -0.00219,0.2979 0.01102,0.6636 0.029326,0.8125 0.042488,0.3457 -0.011592,0.4418 -0.2259774,0.4016 -0.2075773,-0.039 -1.0125264,-0.4984 -1.5051292,-0.8592 -0.4921734,-0.3604 -1.2214181,-1.0478 -1.4087602,-1.3279 -0.1746989,-0.2612 -0.1570091,-0.466 0.074467,-0.8621 0.5931874,-1.0151 1.3823292,-1.8435 2.2865127,-2.4003 l 0.3377978,-0.2079 -0.1009355,-0.2499 c -0.1120883,-0.2775 -0.2186369,-0.7345 -0.2197488,-0.9425 -8.163e-4,-0.1651 -0.020619,-0.167 -0.5797751,-0.053 -1.1449494,0.2333 -1.9778267,0.6555 -2.74089176,1.3894 -0.322472,0.3102 -0.4007039,0.3656 -0.5000265,0.3542 -0.1438678,-0.017 -0.1876785,-0.1318 -0.3138108,-0.826 -0.1663299,-0.9155 -0.1007854,-2.6706 0.1153405,-3.0886 0.035166,-0.068 0.1205503,-0.158 0.1897422,-0.2001 0.3332802,-0.2027 2.07170916,-0.2591 2.85648526,-0.093 0.4520722,0.096 0.7789785,0.1923 1.1229592,0.3313 l 0.2132508,0.086 0.1896442,-0.2993 c 0.1043037,-0.1646 0.2908247,-0.4106 0.4144901,-0.5467 l 0.2248459,-0.2473 -0.3114337,-0.2839 c -0.8632056,-0.7869 -1.9088504,-1.2896 -2.9375222,-1.4124 -0.5349473,-0.064 -0.5613767,-0.071 -0.6110959,-0.1638 -0.057865,-0.1081 -0.014743,-0.1877 0.315659,-0.5829 0.6081686,-0.7273 1.5226705,-1.4729 2.2889127,-1.8661 0.491104,-0.252 0.6342127,-0.2088 1.2125609,0.3661 0.8478863,0.8428 1.4081496,1.7518 1.7087473,2.7725 l 0.07409,0.2516 0.6771401,0 0.6771401,0 0.028673,-0.2662 c 0.04244,-0.3941 -0.00568,-1.4393 -0.082399,-1.7896 -0.1371952,-0.6266 -0.4424232,-1.3538 -0.7723793,-1.8402 -0.1350173,-0.1991 -0.159254,-0.3267 -0.077553,-0.4084 0.07088,-0.071 0.83803,-0.064 1.4227505,0.013 0.615333,0.081 1.3095628,0.2572 1.8635538,0.474 0.685385,0.2681 0.766703,0.3955 0.700907,1.0982 -0.07815,0.8346 -0.295245,1.6609 -0.616422,2.3463 -0.165106,0.3523 -0.489909,0.8864 -0.63579,1.0453 l -0.08126,0.089 0.256684,0.2448 c 0.141178,0.1346 0.342745,0.362 0.447931,0.5052 0.105183,0.1432 0.20169,0.2601 0.214459,0.2596 0.06059,0 0.808668,-0.5713 1.09393,-0.8323 0.57825,-0.5289 1.10273,-1.333 1.385421,-2.1239 0.130896,-0.3662 0.167752,-0.4182 0.296854,-0.4182 0.160896,0 0.827721,0.9195 1.198747,1.653 0.277753,0.5491 0.611011,1.5186 0.611011,1.7776 0,0.2357 -0.117008,0.3875 -0.493049,0.6397 -0.994805,0.6671 -2.146988,1.0814 -3.241905,1.1655 l -0.348601,0.027 -9.8e-4,0.2335 c -4.89e-4,0.1284 -0.03955,0.4022 -0.08678,0.6084 -0.04723,0.2063 -0.08902,0.4024 -0.09285,0.4358 -0.0049,0.042 0.107017,0.095 0.369022,0.1723 0.568913,0.1688 1.099749,0.2462 1.6885,0.2462 0.630844,0 1.117024,-0.078 1.699139,-0.2726 0.639685,-0.2139 0.680386,-0.1648 0.485494,0.5853 -0.263424,1.0138 -0.839189,2.1978 -1.352231,2.7807 -0.274514,0.3118 -0.3896,0.3277 -0.984299,0.1354 -1.036637,-0.3351 -2.157857,-1.0162 -2.781233,-1.6895 l -0.275583,-0.2976 -0.198768,0.1453 c -0.22215,0.1624 -0.6693078,0.4066 -0.8761028,0.4784 l -0.135641,0.047 0.08628,0.2208 c 0.462619,1.1842 1.2014388,2.1129 2.1688958,2.7262 0.535831,0.3397 0.538302,0.4319 0.0182,0.679 -0.927322,0.4406 -2.2119148,0.7536 -3.0908283,0.7532 -0.2556524,-10e-5 -0.3584852,-0.019 -0.466193,-0.084 z"
       id="path3401"
       inkscape:connector-curvature="0" />
  </g>
</svg>
