<?xml version="1.0" encoding="UTF-8" standalone="no"?>
<!-- Generator: Adobe Illustrator 16.0.0, SVG Export Plug-In . SVG Version: 6.00 Build 0)  -->

<svg
   xmlns:dc="http://purl.org/dc/elements/1.1/"
   xmlns:cc="http://creativecommons.org/ns#"
   xmlns:rdf="http://www.w3.org/1999/02/22-rdf-syntax-ns#"
   xmlns:svg="http://www.w3.org/2000/svg"
   xmlns="http://www.w3.org/2000/svg"
   xmlns:sodipodi="http://sodipodi.sourceforge.net/DTD/sodipodi-0.dtd"
   xmlns:inkscape="http://www.inkscape.org/namespaces/inkscape"
   version="1.1"
   id="Capa_1"
   x="0px"
   y="0px"
   width="16"
   height="16"
   viewBox="0 0 16 16"
   xml:space="preserve"
   inkscape:version="0.91 r13725"
   sodipodi:docname="gpu-symbolic.svg"><metadata
     id="metadata3724"><rdf:RDF><cc:Work
         rdf:about=""><dc:format>image/svg+xml</dc:format><dc:type
           rdf:resource="http://purl.org/dc/dcmitype/StillImage" /><dc:title></dc:title></cc:Work></rdf:RDF></metadata><defs
     id="defs3722" /><sodipodi:namedview
     pagecolor="#ffffff"
     bordercolor="#666666"
     borderopacity="1"
     objecttolerance="10"
     gridtolerance="10"
     guidetolerance="10"
     inkscape:pageopacity="0"
     inkscape:pageshadow="2"
     inkscape:window-width="1400"
     inkscape:window-height="984"
     id="namedview3720"
     showgrid="false"
     inkscape:zoom="46.877062"
     inkscape:cx="8.0000001"
     inkscape:cy="8.0006469"
     inkscape:window-x="0"
     inkscape:window-y="27"
     inkscape:window-maximized="1"
     inkscape:current-layer="Capa_1" /><g
     id="g3682"
     transform="matrix(0.35195777,0,0,0.35195777,0,-6.4704223e-4)"
     style="fill:#cccccc"><g
       id="g3684"
       style="fill:#cccccc"><path
         d="m 29.436,15.745 -13.411,0 c -0.155,0 -0.28,0.126 -0.28,0.28 l 0,13.412 c 0,0.153 0.125,0.278 0.28,0.278 l 13.411,0 c 0.154,0 0.279,-0.125 0.279,-0.278 l 0,-13.412 c 0,-0.154 -0.125,-0.28 -0.279,-0.28 z"
         id="path3686"
         inkscape:connector-curvature="0"
         style="fill:#cccccc" /><path
         d="m 42.877,25.308 c 1.428,0 2.583,-1.149 2.583,-2.577 0,-1.428 -1.155,-2.577 -2.583,-2.577 l -4.047,0 0,-2.092 4.047,0 c 1.428,0 2.583,-1.15 2.583,-2.577 0,-1.427 -1.155,-2.578 -2.583,-2.578 l -4.046,0 C 38.584,9.553 35.906,6.878 32.555,6.631 l 0,-4.047 c 0,-1.427 -1.152,-2.583 -2.578,-2.583 -1.426,0 -2.577,1.156 -2.577,2.583 l 0,4.047 -2.092,0 0,-4.047 c 0,-1.427 -1.152,-2.583 -2.579,-2.583 -1.427,0 -2.578,1.156 -2.578,2.583 l 0,4.047 -2.091,0 0,-4.047 c 0.001,-1.427 -1.15,-2.583 -2.577,-2.583 -1.427,0 -2.578,1.156 -2.578,2.583 l 0,4.046 C 9.552,6.877 6.876,9.554 6.629,12.906 l -4.046,0 C 1.156,12.906 0,14.057 0,15.484 c 0,1.427 1.156,2.577 2.583,2.577 l 4.047,0 0,2.092 -4.047,0 C 1.156,20.153 0,21.303 0,22.73 c 0,1.427 1.156,2.578 2.583,2.578 l 4.047,0 0,2.092 -4.047,0 C 1.156,27.399 0,28.55 0,29.978 c 0,1.426 1.156,2.576 2.583,2.576 l 4.046,0 c 0.247,3.354 2.924,6.029 6.276,6.276 l 0,4.047 c 0,1.426 1.151,2.582 2.578,2.582 1.427,0 2.577,-1.156 2.577,-2.582 l 0,-4.048 2.092,0 0,4.048 c 0,1.426 1.151,2.582 2.578,2.582 1.426,0 2.579,-1.156 2.579,-2.582 l 0,-4.048 2.091,0 0,4.048 c 0,1.426 1.149,2.582 2.576,2.582 1.428,0 2.578,-1.156 2.578,-2.582 l 0,-4.046 c 3.354,-0.247 6.029,-2.924 6.276,-6.275 l 4.046,0 c 1.428,0 2.583,-1.15 2.583,-2.578 0,-1.427 -1.155,-2.576 -2.583,-2.576 l -4.046,0 0,-2.094 4.047,0 z m -9.053,4.129 c 0,2.434 -1.956,4.39 -4.389,4.39 l -13.41,0 c -2.434,0 -4.389,-1.956 -4.389,-4.39 l 0,-13.412 c 0,-2.433 1.956,-4.389 4.389,-4.389 l 13.411,0 c 2.434,0 4.389,1.956 4.389,4.389 l 0,13.412 z"
         id="path3688"
         inkscape:connector-curvature="0"
         style="fill:#cccccc" /></g></g><g
     id="g3690"
     transform="translate(0,-29.459999)" /><g
     id="g3692"
     transform="translate(0,-29.459999)" /><g
     id="g3694"
     transform="translate(0,-29.459999)" /><g
     id="g3696"
     transform="translate(0,-29.459999)" /><g
     id="g3698"
     transform="translate(0,-29.459999)" /><g
     id="g3700"
     transform="translate(0,-29.459999)" /><g
     id="g3702"
     transform="translate(0,-29.459999)" /><g
     id="g3704"
     transform="translate(0,-29.459999)" /><g
     id="g3706"
     transform="translate(0,-29.459999)" /><g
     id="g3708"
     transform="translate(0,-29.459999)" /><g
     id="g3710"
     transform="translate(0,-29.459999)" /><g
     id="g3712"
     transform="translate(0,-29.459999)" /><g
     id="g3714"
     transform="translate(0,-29.459999)" /><g
     id="g3716"
     transform="translate(0,-29.459999)" /><g
     id="g3718"
     transform="translate(0,-29.459999)" /></svg>